<?xml version="1.0" encoding="UTF-8" standalone="no"?>
<svg
   xmlns:dc="http://purl.org/dc/elements/1.1/"
   xmlns:cc="http://creativecommons.org/ns#"
   xmlns:rdf="http://www.w3.org/1999/02/22-rdf-syntax-ns#"
   xmlns:svg="http://www.w3.org/2000/svg"
   xmlns="http://www.w3.org/2000/svg"
   xmlns:sodipodi="http://sodipodi.sourceforge.net/DTD/sodipodi-0.dtd"
   xmlns:inkscape="http://www.inkscape.org/namespaces/inkscape"
   version="1.0"
   width="1278pt"
   height="361.4053pt"
   viewBox="0 0 1278 361.4053"
   preserveAspectRatio="xMidYMid meet"
   id="svg38"
   sodipodi:docname="horizontale_waze_separator.svg"
   inkscape:version="1.0.1 (3bc2e813f5, 2020-09-07)">
  <defs
     id="defs42" />
  <sodipodi:namedview
     pagecolor="#ffffff"
     bordercolor="#666666"
     borderopacity="1"
     objecttolerance="10"
     gridtolerance="10"
     guidetolerance="10"
     inkscape:pageopacity="0"
     inkscape:pageshadow="2"
     inkscape:window-width="1920"
     inkscape:window-height="1001"
     id="namedview40"
     showgrid="false"
     inkscape:zoom="0.32648446"
     inkscape:cx="1300.5256"
     inkscape:cy="186.4435"
     inkscape:window-x="-9"
     inkscape:window-y="-9"
     inkscape:window-maximized="1"
     inkscape:current-layer="g36"
     fit-margin-top="0"
     fit-margin-left="0"
     fit-margin-right="0"
     fit-margin-bottom="0"
     inkscape:pagecheckerboard="true" />
  <metadata
     id="metadata2">
Created by potrace 1.15, written by Peter Selinger 2001-2017
<rdf:RDF>
  <cc:Work
     rdf:about="">
    <dc:format>image/svg+xml</dc:format>
    <dc:type
       rdf:resource="http://purl.org/dc/dcmitype/StillImage" />
    <dc:title></dc:title>
  </cc:Work>
</rdf:RDF>
</metadata>
  <g
     transform="matrix(0.1,0,0,-0.1,175.50268,279.50686)"
     fill="#000000"
     stroke="none"
     id="g36">
    <path
       d="m 9999.9734,-803.95791 c 249.9996,48 455.9996,226 503.9996,436 16,67 13,189 -5,251 -46,155.999997 -153,279 -310,356 -90,44 -105,48 -170,48 -60.9996,0 -76.9996,-4 -119.9996,-30 -30,-19 -60,-49 -79,-79 -26,-43 -30,-59 -30,-120.000003 0,-59.9999999 4,-79 28,-118 25,-43.999997 60,-77.999997 79,-77.999997 5,0 5,24 2,52.999997 -6,47 -4,56 20,84.00000011 46,53.99999989 108.9996,51.99999989 168.9996,-5.00000001 60,-57.0000001 73,-122.9999971 37,-196.9999971 -44,-91 -146.9996,-161 -251.9996,-172 -66,-6 -185,18 -255,52 -160,79 -229,271.999997 -173,489 30,116 110,265 176,325 163,149 457.9996,193 711.9996,107 97,-33 141,-57 297,-165 140,-96 310,-250 350,-319 18,-30.000003 45,-44.000003 45,-22.000003 0,5 -11,42.000003 -24,82.000003 -54,161 -70,269 -70,468 1,128 6,208 16,260 9,41 13,78 9,82 -4,5 -67,-5 -141,-22 -297,-65 -585,-94 -919.9996,-94 -337,0 -591,27 -914,95 -76,16 -141,27 -145,25 -4,-3 -72,-18 -151,-35 -539,-111 -1099,-120 -1649,-25 -80,13 -180,33 -223,44 -72,19 -83,19 -136,6 -185,-47 -481,-89 -762,-107 -351,-22 -758,10 -1140,91 l -135,28 -80,-19 c -117,-28 -339,-66 -505,-86 -205,-25 -735,-25 -940,0 -164,20 -399,60 -508,86 -73,17 -75,17 -175,-6 -490,-110 -1049,-132 -1557,-62 -135,19 -425,74 -441,85 -4,2 -59,-7 -121,-21 -614,-136 -1262,-136 -1876,0 -62,14 -117,23 -121,20 -19,-11 -36,-178 -35,-350 0,-146 4,-201 22,-290 63,-307.000003 196,-578 389,-795 248,-276 407,-364 658,-364 194,0 353,62 480,188 201.000003,198 220.000003,484 46,702.999997 -75,95.000003 -253,199.000003 -357,210.000003 -167,17 -292,-142 -242,-308.000003 12,-43 72,-118.999997 93,-118.999997 10,0 12,12 8,52.999997 -5,47 -2,56 21,84.00000011 48,56.99999989 105,52.99999989 170,-11.00000011 62,-59 70,-109.999997 32,-190.999997 -40,-88 -138,-157 -239,-171 -63,-9 -182,13 -254,47 -78,37 -153,118 -183,197 -19,48.999997 -21,70.999997 -17,166.999997 3,92.000003 9,124.000003 36,195.000003 43,115 107,224 156,264 183,150 460,187 722,97 165.000003,-57 448,-257 577,-407 68,-80 69,-81 121,-204.000003 81,-191.999997 201,-363.999997 378,-538.999997 191,-189 312,-249 522,-258 141,-6 230,12 350,71 186,92 296,236 325,424 37,234.999997 -123,481 -380,582 -177,70 -344,-31 -345,-210.000003 0,-52.99999989 5,-73 27,-112 32,-53.999997 77,-92.999997 91,-78.999997 5,5 5,17 -2,29 -20,37.999997 -13,71.999997 23,107.9999971 49,48.9999999 103,45.9999999 164,-10.0000001 106,-96.999997 44,-265.999997 -125,-342.999997 -49,-23 -64,-25 -146,-21 -143,8 -246,54 -316,143 -117,146.999997 -105,364 33,614 122,220 451,314 771,219 98,-29 170,-67 320,-171 244,-168 332,-264 413,-446.000003 99,-221.999997 190,-350.999997 381,-540.999997 139,-139 207,-186 321,-223 184,-61 383,-47 559,40 95,46 224,170 264,255 103,215 64,430.999997 -109,604 -107,108 -273,183 -371,167 -18,-3 -57,-20 -85,-37 -127,-76 -146,-258.0000029 -38,-363 18,-18 36,-30 40,-28 4,2 5,29 2,58.999997 -4,51 -2,57 26,86.0000001 24,23.9999999 39,29.9999999 71,29.9999999 35,0 49,-7 86,-40.9999999 60,-55.0000001 73,-97.9999971 51,-171.9999971 -19,-67 -78,-131 -151,-167 -95,-47 -246,-38 -364,21 -150,75 -221,231.999997 -188,419.999997 24,140.000003 106,316.000003 179,386.000003 121,116 339,178 539,153 128,-15 264,-62 360,-124 171,-110 251,-170 327,-241 108,-102 153,-163 206,-283.000003 93,-210.999997 216,-382.999997 398,-556.999997 126,-120 190,-164 296,-201 357,-124 763,52 862,374 29,93 27,226 -4,312.999997 -44,126 -134,231.000003 -258,305.000003 -162,94 -285,96 -377,3 -51,-51 -65,-86 -65,-164.000003 0,-78 14,-113 64,-163.999997 35,-34 67,-43 55,-14 -29,66.999997 -9,123.9999971 52,148.999997 45,19 88,6 130,-39 41,-43 53,-69 53,-113.999997 -1,-117 -130,-236 -272,-250 -62,-6 -182,17 -243,47 -71,34 -131,95 -167,168 -31,62.999997 -33,71.999997 -33,176.999997 0,89.000003 5,124.000003 23,180.000003 64,191 154,309 285,373 112,54 175,67 327,67 217,-1 320,-37 556,-196 158,-106 334,-272 371,-349.000003 12,-25 45,-94.9999999 73,-155 93,-197.999997 195,-338.999997 372,-510.999997 110,-107 137,-127 219,-168 276,-135 593,-90 801,115 173,169 214,389 111,598.999997 -91,185.000003 -341,343.000003 -492,309.000003 -152,-34 -229,-210.000003 -152,-345.000003 45,-78.999997 107,-107.999997 81,-37.999997 -24,61.999997 31,133.999997 101,133.999997 46,0 106,-48 134,-107 44,-92.999997 -50,-240.999997 -185,-287.999997 -23,-8 -75,-15 -115,-15 -177,0 -330,95 -386,239 -17,42.999997 -22,76.999997 -22,145.9999971 0,113.0000029 20,190.0000029 84,322.0000029 39,80 62,113 106,153 214,196 614,207 893,26 322,-209 451,-332 523,-502.0000029 52,-121.9999971 80,-172.9999971 157,-287.9999971 77,-114 263,-316 362,-393 147,-112 369,-164 553,-129 z"
       id="path34"
       style="fill:#ffffff;fill-opacity:1" />
    <path
       d="m -730.02666,2780.042 c -250.0001,-48 -456.00014,-226 -504.00014,-436 -16,-67 -13,-189 5,-251 46,-156 153,-279 310.00004,-356.0001 90,-43.9999 105,-47.9999 170.0001,-47.9999 61,0 77,4 120,30 30,18.9999 60,48.9999 79,78.9999 26,43.0001 30,59.0001 30,120 0,60 -4,79.0001 -28,118.0001 -25,44 -60,78 -79,78 -5,0 -5,-24 -2,-53 6,-47 4,-56 -20,-84 -46,-54 -108.9997,-52 -169.0001,5 -60,57 -73,123 -37,197 44,91 147.0001,161 252.0001,172 66,6 185,-18 255,-52 160,-79 229,-272 173,-489.0001 -30,-115.9999 -110,-264.9999 -176,-324.9999 -163,-149 -458.0001,-193 -712.00014,-107 -97,33 -141,57 -297,165 -140,96 -310,250 -350,319 -18,30 -45,43.9999 -45,22 0,-5.0001 11,-42 24,-82 54,-161 70,-269 70,-468 -1,-128 -6,-208 -16,-260 -9,-41 -13,-78.00003 -9,-82.00003 4,-5 67,5 141,22.00003 297,65 585.00004,94 920.00014,94 337,0 590.999998,-27 914,-95 76,-16.00003 141,-27.00003 145,-25.00003 4,3 72,18.00003 151,35.00003 538.99996,111 1098.99996,120 1649.00016,25 80,-13 180,-33 223,-44 72,-19.00003 83,-19.00003 136,-6.00003 185,47.00003 481,89.00003 762,107.00003 351,22 757.9997,-10 1139.9997,-91 l 135,-28.00003 80.0001,19.00003 c 117,28 339,66 504.9999,86 205,25 735.0001,25 939.9999,0 164.0002,-20 399,-60 508.0005,-86 72.9998,-17.00003 75,-17.00003 174.9998,6 489.9997,110 1049.0001,132 1557.0001,62 135,-19 425.0003,-74.00003 441,-85.00003 3.9998,-2 59.0003,7 120.9998,21.00003 614.0002,136 1261.9997,136 1876.0007,0 61.999,-14.00003 117,-23.00003 120.999,-20.00003 19,11.00003 36,178.00003 35.001,350.00003 0,146 -4.001,201 -22.001,290 -63,306.9999 -196,578 -388.999,795 -248.001,276 -407.001,364 -658.0007,364 -193.9995,0 -352.9995,-62 -480,-188 -201.0001,-198 -219.9999,-484 -45.9998,-703.0001 75,-94.9999 252.9998,-198.9999 357,-209.9999 167.0003,-17 291.9995,142 242.0003,308 -12,43 -72,119 -93,119 -10.0005,0 -12,-12 -8.0003,-53 5.0003,-47 2.0003,-56 -21,-84 -48,-57 -105,-53.0001 -170.0002,11 -61.9995,59 -69.9998,110 -31.9995,191 39.9997,88 138,157 238.9995,171 63,9 181.9997,-13 253.9997,-47 78,-37 153,-118 183,-197 19,-49 21,-71 17.001,-167.0001 -3,-91.9999 -9,-124 -36,-195 -43.001,-114.9999 -107.001,-223.9999 -156,-263.9999 -183.0002,-150 -460.0007,-187 -722.0005,-97 -165.0001,57 -447.9997,257 -576.9997,407 -68.0003,79.9999 -69,81 -121.0005,204 -81.0001,192 -201.0001,364 -378.0001,539 -190.9997,189 -312.0002,249 -522.0002,258 -141,6 -229.9995,-12 -349.9994,-71 -186,-92 -296.0002,-236 -325.0005,-424 -36.9997,-235 123,-481.0001 380.0002,-582 177,-70 344.0002,31 345,209.9999 0,53.0001 -5.0003,73.0001 -27,112.0001 -32.0003,54 -77.0003,93 -90.9998,79 -5.0002,-5 -5.0002,-17 1.9995,-29 20.0003,-38 13.0005,-72 -22.9995,-108.0001 -49.0005,-48.9999 -103.0005,-45.9999 -164.0002,10.0001 -105.9997,97 -44.0003,266 125.0002,343 48.9998,23 63.9998,25 145.9995,21 143.0003,-8 246,-54 316.0005,-143 117.0002,-147 105.0002,-364 -33,-614 -122.0002,-220 -451.0005,-314 -770.9999,-219 -98.0002,29 -170.0002,67 -320.0002,171 -243.9998,168 -332.0003,264 -413.0003,446 -99,222 -189.9998,351 -381,541 -138.9998,139 -207,186 -321,223 -183.9998,61 -382.9997,47 -558.9998,-40 -95.0001,-46 -224.0001,-170 -264.0001,-255 -102.9999,-215 -63.9999,-431 109,-604.0001 107,-108 273,-182.9999 371.0002,-166.9999 18,3 57,20 85,37 127.0002,75.9999 145.9999,258 38,363 -18,18 -36,30 -40,28 -4,-2 -5,-29 -2,-59 4,-51 2,-57 -26,-86 -24.0001,-24 -39.0001,-30 -71,-30 -35,0 -49.0001,6.9999 -86.0001,41 -60,55 -73,98 -51,172 18.9999,67 78.0001,131 151,167 95.0001,47 245.9998,38 364.0003,-21 150,-75 220.9995,-232 187.9995,-420 -24,-140.0001 -105.9998,-316 -178.9995,-386 -121.0005,-116 -339.0002,-178 -539.0003,-153 -128.0001,15 -264.0001,62 -360.0001,124 -171,110 -251,170 -327,241 -108,102 -153,163 -205.9999,283 -93,211 -216,383 -398.0001,557 -126,120 -189.9999,164 -296,201 -356.9997,124 -762.9997,-52 -861.9997,-374 -29,-93 -27,-226 4,-313 44,-126 134,-231 258,-305.0001 162,-93.9999 285,-95.9999 377,-3 50.9999,51 65,86.0001 65,164.0001 0,78 -14.0001,113 -64,164 -35,34 -67,43 -55,14 29,-67 9,-124 -52,-149.0001 -45,-18.9999 -88,-6 -130,39.0001 -41,43 -53,69 -53,114 1,117 130,236 272,250 61.9999,6 181.9997,-17 242.9997,-47 71,-34 131,-95 167,-168 31,-63 33,-72 33,-177 0,-89.0001 -5,-124 -23,-180.0001 -64,-190.9999 -154,-308.9999 -284.9999,-372.9999 -111.9998,-54 -174.9998,-67 -326.9998,-67 -217,1 -320,37 -556,196 -158,106 -334,271.9999 -371,349 -12,24.9999 -45,95 -73,155 -93,198 -195,339 -372,511 -110,107 -137,127 -219,168 -276.0002,135 -593.0002,90 -801.0002,-115 -172.99996,-169 -213.99996,-389 -110.99996,-599 90.99996,-185.0001 340.99996,-343 491.99996,-309 152,34 229,210 152,345 -45,79 -107,108 -81,38 24,-62 -31,-134 -101,-134 -46,0 -106,48 -134,107 -44,93 50,241 185,288 23,8 75,15 115,15 177,0 330.0002,-95 386.0002,-239 17,-43 22,-77 22,-146.0001 0,-112.9999 -20,-190 -84,-321.9999 -39,-80 -62,-113 -106,-153 -214.0002,-196 -614.0002,-207 -893.00016,-26 -322,209 -451,331.9999 -523,502 -52,122 -80,173 -157,288 -77,114 -263.000002,316 -362,393 -147,112 -369,164 -553,129 z"
       id="path34-6"
       style="fill:#ffffff;fill-opacity:1;stroke-width:0.999997" />
  </g>
</svg>
