<?xml version="1.0" encoding="UTF-8" standalone="no"?>
<svg
   xmlns:dc="http://purl.org/dc/elements/1.1/"
   xmlns:cc="http://creativecommons.org/ns#"
   xmlns:rdf="http://www.w3.org/1999/02/22-rdf-syntax-ns#"
   xmlns:svg="http://www.w3.org/2000/svg"
   xmlns="http://www.w3.org/2000/svg"
   xmlns:sodipodi="http://sodipodi.sourceforge.net/DTD/sodipodi-0.dtd"
   xmlns:inkscape="http://www.inkscape.org/namespaces/inkscape"
   width="503.86786"
   height="170.53616"
   style="overflow:visible"
   viewBox="0 0 503.86786 170.53616"
   data-svgdocument=""
   id="_uJ5I_tUFYVnVFEfYSV-d8"
   class="fl-svgdocument"
   x="0"
   y="0"
   overflow="hidden"
   data-bbox="10.993298530578613 169.25086975097656 477.0893933072148 170.5361628927103"
   version="1.1"
   sodipodi:docname="logo_white_text.svg"
   inkscape:version="1.0.1 (3bc2e813f5, 2020-09-07)">
  <metadata
     id="metadata9">
    <rdf:RDF>
      <cc:Work
         rdf:about="">
        <dc:format>image/svg+xml</dc:format>
        <dc:type
           rdf:resource="http://purl.org/dc/dcmitype/StillImage" />
        <dc:title></dc:title>
      </cc:Work>
    </rdf:RDF>
  </metadata>
  <sodipodi:namedview
     pagecolor="#ffffff"
     bordercolor="#666666"
     borderopacity="1"
     objecttolerance="10"
     gridtolerance="10"
     guidetolerance="10"
     inkscape:pageopacity="0"
     inkscape:pageshadow="2"
     inkscape:window-width="1920"
     inkscape:window-height="1001"
     id="namedview7"
     showgrid="false"
     fit-margin-top="0"
     fit-margin-left="0"
     fit-margin-right="0"
     fit-margin-bottom="0"
     inkscape:pagecheckerboard="true"
     inkscape:zoom="0.81054688"
     inkscape:cx="96.58891"
     inkscape:cy="45.575434"
     inkscape:window-x="-9"
     inkscape:window-y="-9"
     inkscape:window-maximized="1"
     inkscape:current-layer="_uJ5I_tUFYVnVFEfYSV-d8"
     inkscape:document-rotation="0" />
  <defs
     id="_6IjzfRJdCBi-VJOKglGk0"
     transform="matrix(0.4133571684360504, 0, 0, 0.4133571684360504, -12.905353546142578, 200.09933471679688)"
     data-uid="o_en9i1a846_4" />
  <path
     text="coding pool"
     text-anchor="start"
     font-size="100px"
     letter-spacing="0"
     side="left"
     offset="0"
     dx="0"
     dy="0"
     space="preserve"
     href=""
     font-family="Salsa"
     font-scale="contain"
     x="0"
     y="0"
     fill="#4c585f"
     font-weight="400"
     font-style="normal"
     data-fl-textpath=""
     id="_R6mCzjP9sfLSIxQEO2S0W"
     data-uid="o_en9i1a846_6"
     d="m 25.19372,111.30855 v 0 q -10.63486,0 -16.30017,-5.66529 Q 3.22827,99.977965 3.22827,89.343106 v 0 q 0,-12.920851 7.25556,-21.816366 7.25553,-8.895513 19.28187,-8.895513 v 0 q 6.858,0 11.13183,2.733258 4.27385,2.733261 4.27385,8.100384 v 0 q 0,3.478692 -2.78298,6.211948 -2.78295,2.73326 -6.26166,2.73326 v 0 q -0.79511,0 -1.9878,-0.198787 v 0 q 0.29835,-1.292088 0.29835,-2.285998 v 0 q 0,-3.578083 -1.88846,-6.062863 -1.88843,-2.484779 -6.26163,-2.484779 -4.37323,0 -8.15009,3.578081 v 0 q -2.68357,6.957387 -2.68357,17.39346 v 0 q 0,14.212939 10.73426,14.212939 v 0 q 5.76469,0 8.59733,-3.72717 2.83263,-3.727167 2.83263,-8.398553 v 0 q 3.37933,0 5.86412,1.689647 2.48477,1.689654 2.48477,4.67139 v 0 q 0,6.460426 -6.6095,10.485766 -6.60952,4.02534 -14.16325,4.02534 z m 47.6084,0 q -10.93305,0 -16.10139,-6.41072 -5.16834,-6.41073 -5.16834,-17.890415 0,-11.479684 6.858,-19.927935 6.85796,-8.448253 17.59221,-8.448253 v 0 q 22.06485,0 22.06485,24.847801 v 0 q 0,11.62877 -7.15614,19.729152 -7.1562,8.10037 -18.08919,8.10037 z m -7.1562,-41.744289 v 0 q -1.78903,5.764689 -1.78903,11.529377 0,5.76469 0.39757,8.945209 0.39758,3.180518 1.49087,6.361033 v 0 q 2.28598,6.46043 8.99491,6.46043 6.7089,0 8.84582,-3.578085 2.13691,-3.578081 2.13691,-11.032418 v 0 q 0,-21.170326 -10.03854,-21.170326 v 0 q -5.76468,0 -10.03851,2.48478 z m 71.76045,-32.799095 v 0 q 3.18053,-1.192695 6.5598,-1.192695 3.37935,0 5.56595,2.236302 2.18656,2.236302 2.18656,5.565908 0,3.329604 -0.99388,15.703807 -0.9939,12.374207 -0.9939,24.350844 0,11.976641 2.38536,25.493848 v 0 q -3.57806,1.19269 -7.45431,1.19269 v 0 q -6.55983,0 -6.55983,-9.24338 v 0 q 0,-3.081131 1.29208,-11.032426 v 0 q -4.17442,8.845816 -7.40464,13.119636 -3.23021,4.27382 -6.26163,6.01317 -3.03147,1.73934 -6.41075,1.73934 v 0 q -7.55373,0 -11.57908,-5.5659 -4.02533,-5.565911 -4.02533,-13.715988 0,-8.150079 2.93202,-15.355935 2.93202,-7.205867 8.84582,-12.026339 5.91376,-4.820472 12.57297,-4.820472 6.65922,0 11.5294,1.789041 v 0 q -0.19867,-12.821464 -2.18661,-24.251451 z m 2.18661,32.699703 v 0 q -4.87017,-1.789042 -10.53546,-1.789042 -5.6653,0 -9.74034,3.27991 v 0 q -3.3793,8.050688 -3.3793,17.989806 v 0 q 0,4.571996 1.29208,8.746427 1.29209,4.17443 4.27382,4.17443 v 0 q 4.57201,0 10.38637,-10.237294 5.81439,-10.237293 7.70283,-22.164237 z m 22.16424,-8.746426 v 0 q 3.18051,-0.894519 6.41073,-0.894519 3.23021,0 5.51624,1.987827 2.28597,1.987821 2.28597,5.118642 0,3.130824 -1.04361,10.833639 -1.0436,7.702821 -1.0436,11.97664 v 0 q 0,11.131818 2.08724,19.182508 v 0 q -3.08115,1.19269 -6.65922,1.19269 -3.57809,0 -5.66532,-1.63995 -2.08719,-1.63996 -2.08719,-4.77078 0,-3.13083 1.19268,-10.28699 1.19269,-7.156167 1.19269,-11.827557 v 0 q 0,-12.423897 -2.18661,-20.87215 z m 1.29209,-22.462409 v 0 q 3.47868,-1.590258 6.85801,-1.590258 3.37928,0 5.01921,1.739343 1.63997,1.739348 1.63997,5.118647 0,3.379303 -2.23628,5.963472 -2.2363,2.58417 -5.81439,2.58417 v 0 q -7.35498,0 -7.35498,-7.653119 v 0 q 0,-3.379303 1.88846,-6.162255 z m 69.97137,31.705791 v 0 l -0.99389,21.866063 q 0,9.044592 2.78295,17.691632 v 0 q -2.78295,1.19269 -6.36103,1.19269 v 0 q -8.44826,0 -8.44826,-9.44216 v 0 q 0,-4.273818 1.09334,-14.362024 1.0933,-10.088205 1.0933,-12.67238 v 0 q 0,-4.969555 -4.47262,-4.969555 v 0 q -3.27989,0 -7.40466,4.721079 -4.12472,4.721083 -7.05674,10.535467 -2.93206,5.814384 -3.429,9.591251 v 0 q 0.39753,7.752512 1.9878,14.809292 v 0 q -3.18051,1.19269 -6.60951,1.19269 -3.429,0 -5.56591,-1.63995 -2.13687,-1.63996 -2.13687,-4.572 0,-2.93204 0.89451,-10.535466 0.89451,-7.603425 0.89451,-15.107462 0,-7.504036 -2.28605,-17.244372 v 0 q 3.18059,-1.192695 6.75867,-1.192695 3.57806,0 5.81438,2.087216 2.23631,2.087214 2.23631,5.168338 0,3.081131 -0.79516,9.83973 v 0 q 3.77685,-7.056774 9.83975,-12.374202 6.06285,-5.317431 12.12574,-5.317431 v 0 q 10.03848,0 10.03844,10.734249 z m 45.71998,-0.695739 v 0 q -5.26773,-1.590258 -10.43607,-1.590258 -5.16835,0 -9.74035,3.081126 v 0 q -3.57807,7.156166 -3.57807,15.206855 v 0 q 0,4.671387 1.29208,9.094293 1.29209,4.422909 4.27379,4.422909 v 0 q 3.37932,0 9.04464,-9.640949 5.66528,-9.640944 9.14398,-20.573976 z m -14.90868,57.149944 v 0 q 6.36102,0 9.93911,-4.37321 3.5781,-4.37322 3.5781,-11.23122 v 0 q 0,-3.37929 -0.4473,-9.83972 -0.44726,-6.460429 -0.54663,-9.143994 v 0 q -7.05675,12.324504 -12.3245,15.107464 v 0 q -2.68354,1.39147 -5.66529,1.39147 v 0 q -7.45434,0 -11.52938,-5.86408 -4.07504,-5.864074 -4.07504,-14.312327 v 0 q 0,-11.529378 7.20586,-20.22611 7.20586,-8.696727 18.28796,-8.696727 11.08213,0 22.4127,3.876255 v 0 q -2.9817,10.634859 -2.9817,20.872152 v 0 q 0,4.870168 0.69573,12.076032 0.69575,7.205855 0.69575,10.684555 v 0 q 0,12.22511 -7.7525,20.2261 -7.75253,8.001 -19.87826,8.001 v 0 q -7.15618,0 -12.2748,-2.73326 -5.11866,-2.73328 -5.11866,-8.49796 v 0 q 0,-3.57806 2.68355,-6.06285 2.68357,-2.48478 6.36105,-2.48478 v 0 q 0.79515,0 1.98783,0.19878 v 0 q -0.29835,1.29208 -0.29835,2.286 v 0 q 0,3.57808 2.68357,6.16225 2.68355,2.58417 6.36103,2.58417 z m 76.82937,-26.0405 v 0 q 4.07505,1.49087 9.44219,1.49087 5.36712,0 9.44215,-2.087215 v 0 q 4.87019,-8.348863 4.87019,-20.027329 0,-11.678463 -4.07508,-11.678463 v 0 q -5.06894,0 -11.38025,10.237293 -6.31134,10.237291 -8.2992,22.064844 z m 0,-20.375195 v 0 q 10.53548,-20.772759 23.35697,-20.772759 v 0 q 6.75858,0 9.69063,5.516213 2.93202,5.516209 2.93202,13.964463 v 0 q 0,12.125725 -7.15617,22.064838 -7.15614,9.93912 -17.9898,9.93912 v 0 q -6.16224,0 -11.23119,-1.98781 v 0 q 0.19868,13.61659 1.68963,24.94719 v 0 q -3.18051,1.19268 -6.55983,1.19268 -3.37928,0 -5.56587,-2.23628 -2.18664,-2.23632 -2.18664,-6.80832 0,-4.57198 1.19271,-15.60441 1.19268,-11.032425 1.19268,-17.294069 v 0 q 0,-20.673369 -2.1866,-31.904575 v 0 q 3.18053,-1.192694 6.70893,-1.192694 3.52836,0 5.4665,2.037522 1.93812,2.037516 1.93812,6.361034 0,4.323519 -1.29209,11.777857 z m 62.21891,31.308215 q -10.93302,0 -16.10139,-6.41072 -5.16834,-6.41073 -5.16834,-17.890415 0,-11.479684 6.858,-19.927935 6.858,-8.448253 17.59225,-8.448253 v 0 q 22.06485,0 22.06485,24.847801 v 0 q 0,11.62877 -7.15618,19.729152 -7.15616,8.10037 -18.08919,8.10037 z m -7.15619,-41.744289 v 0 q -1.78902,5.764689 -1.78902,11.529377 0,5.76469 0.39755,8.945209 0.39756,3.180518 1.49087,6.361033 v 0 q 2.28604,6.46043 8.99491,6.46043 6.70891,0 8.8458,-3.578085 2.13691,-3.578081 2.13691,-11.032418 v 0 q 0,-21.170326 -10.03848,-21.170326 v 0 q -5.76471,0 -10.03854,2.48478 z m 58.34267,41.744289 q -10.93305,0 -16.10141,-6.41072 -5.16832,-6.41073 -5.16832,-17.890415 0,-11.479684 6.858,-19.927935 6.85798,-8.448253 17.59225,-8.448253 v 0 q 22.06484,0 22.06484,24.847801 v 0 q 0,11.62877 -7.15617,19.729152 -7.15616,8.10037 -18.08919,8.10037 z m -7.1562,-41.744289 v 0 q -1.78902,5.764689 -1.78902,11.529377 0,5.76469 0.39756,8.945209 0.39757,3.180518 1.49088,6.361033 v 0 q 2.28601,6.46043 8.99491,6.46043 6.70889,0 8.8458,-3.578085 2.13692,-3.578081 2.13692,-11.032418 v 0 q 0,-21.170326 -10.03851,-21.170326 v 0 q -5.7647,0 -10.03854,2.48478 z M 488.2573,36.765168 v 0 q 3.1805,-1.192697 6.55982,-1.192697 3.3793,0 5.61559,2.236302 2.23632,2.236302 2.23632,6.062864 0,3.826561 -1.04361,15.306246 -1.04362,11.479681 -1.04362,18.039501 v 0 q 0,16.200765 2.28603,31.705796 v 0 q -3.18054,1.19269 -6.75863,1.19269 v 0 q -7.6531,0 -7.6531,-7.45434 v 0 q 0,-3.578084 1.0933,-14.063856 1.09329,-10.48577 1.09329,-16.846805 v 0 q 0,-21.170327 -2.38539,-34.985701 z"
     style="fill:#ffffff;fill-opacity:1;stroke-width:0.993913" />
</svg>
