<?xml version="1.0" encoding="UTF-8" standalone="no"?>
<svg
   xmlns:dc="http://purl.org/dc/elements/1.1/"
   xmlns:cc="http://creativecommons.org/ns#"
   xmlns:rdf="http://www.w3.org/1999/02/22-rdf-syntax-ns#"
   xmlns:svg="http://www.w3.org/2000/svg"
   xmlns="http://www.w3.org/2000/svg"
   xmlns:sodipodi="http://sodipodi.sourceforge.net/DTD/sodipodi-0.dtd"
   xmlns:inkscape="http://www.inkscape.org/namespaces/inkscape"
   version="1.0"
   width="361.4053pt"
   height="1278pt"
   viewBox="0 0 361.4053 1278"
   preserveAspectRatio="xMidYMid meet"
   id="svg38"
   sodipodi:docname="verticale_waze_separator.svg"
   inkscape:version="1.0.1 (3bc2e813f5, 2020-09-07)">
  <defs
     id="defs42" />
  <sodipodi:namedview
     pagecolor="#ffffff"
     bordercolor="#666666"
     borderopacity="1"
     objecttolerance="10"
     gridtolerance="10"
     guidetolerance="10"
     inkscape:pageopacity="0"
     inkscape:pageshadow="2"
     inkscape:window-width="1920"
     inkscape:window-height="1001"
     id="namedview40"
     showgrid="false"
     inkscape:zoom="0.32648446"
     inkscape:cx="571.5245"
     inkscape:cy="920.23894"
     inkscape:window-x="-9"
     inkscape:window-y="-9"
     inkscape:window-maximized="1"
     inkscape:current-layer="g36"
     fit-margin-top="0"
     fit-margin-left="0"
     fit-margin-right="0"
     fit-margin-bottom="0"
     inkscape:pagecheckerboard="true" />
  <metadata
     id="metadata2">
Created by potrace 1.15, written by Peter Selinger 2001-2017
<rdf:RDF>
  <cc:Work
     rdf:about="">
    <dc:format>image/svg+xml</dc:format>
    <dc:type
       rdf:resource="http://purl.org/dc/dcmitype/StillImage" />
    <dc:title></dc:title>
  </cc:Work>
</rdf:RDF>
</metadata>
  <g
     transform="matrix(0.1,0,0,-0.1,-371.24811,829.85343)"
     fill="#000000"
     stroke="none"
     id="g36">
    <path
       d="m 7311.5077,7273.5343 c -48,250 -226,456 -436,504 -67,16 -189,13 -251,-5 -156,-46 -279,-153 -356,-310 -44,-90 -48,-105 -48,-170 0,-61 4,-77 30,-120 19,-30 49,-60 79,-79 43,-26 59,-30 120,-30 60,0 79,4 118,28 44,25 78,60 78,79 0,5 -24,5 -53,2 -47,-6 -56,-4 -84,20 -54,46 -52,109 5,169 57,60 123,73 197,37 91,-44 161,-147 172,-252 6,-66 -18,-185 -52,-255 -79,-160 -272,-229 -489,-173 -116,30 -265,110 -325,176 -149,163 -193,458 -107,712 33,97 57,141 165,297 96,140 250,310 319,350 30,18 44,45 22,45 -5,0 -42,-11 -82,-24 -161,-54 -269,-70 -468,-70 -128,1 -208,6 -260,16 -41,9 -78,13 -82,9 -5,-4 5,-67 22,-141 65,-297 94,-585 94,-920 0,-337 -27,-591 -95,-914 -16,-76 -27,-141 -25,-145 3,-4 18,-72 35,-151 111,-539 120,-1099 25,-1649 -13,-80 -33,-180 -44,-223 -19,-72 -19,-83 -6,-136 47,-185 89,-481 107,-762 22,-351 -10,-758 -91,-1140 l -28,-135 19,-80 c 28,-117 66,-339 86,-505 25,-205 25,-735 0,-940 -20,-164 -60,-398.999997 -86,-508 -17,-73 -17,-75 6,-175 110,-490 132,-1049 62,-1557 -19,-135 -74,-425 -85,-441 -2,-4 7,-59 21,-121 136,-614 136,-1262 0,-1876 -14,-62 -23,-117 -20,-121 11,-19 178,-36 350,-35 146,0 201,4 290,22 307,63 578,196 795,389 276,248 364,407 364,658 0,194 -62,353 -188,480 -198,201 -484,220 -703,46 -95,-75 -199,-253 -210,-357 -17,-167 142,-292 308,-242 43,12 119,72 119,93 0,10 -12,12 -53,8 -47,-5 -56,-2 -84,21 -57,48 -53,105 11,170 59,62 110,70 191,32 88,-40 157,-138 171,-239 9,-63 -13,-182 -47,-254 -37,-78 -118,-153 -197,-183 -49,-19 -71,-21 -167,-17 -92,3 -124,9 -195,36 -115,43 -224,107 -264,156 -150,183 -187,460 -97,722 57,165 257,448 407,577 80,68 81,69 204,121 192,81 364,201 539,378 189,191 249,312 258,522 6,141 -12,230 -71,350 -92,186 -236,296 -424,325 -235,37 -481,-123 -582,-380 -70,-177 31,-344 210,-345 53,0 73,5 112,27 54,32 93,77 79,91 -5,5 -17,5 -29,-2 -38,-20 -72,-13 -108,23 -49,49 -46,103 10,164 97,106 266,44 343,-125 23,-49 25,-64 21,-146 -8,-143 -54,-246 -143,-316 -147,-117 -364,-105 -614,33 -220,122 -314,451 -219,771 29,98 67,170 171,320 168,244 264,332 446,413 222,99.0000032 351,190.000003 541,381 139,139 186,207 223,321 61,184 47,383 -40,559 -46,95 -170,224 -255,264 -215,103 -431,64 -604,-109 -108,-107 -183,-273 -167,-371 3,-18 20,-57 37,-85 76,-127 258,-146 363,-38 18,18 30,36 28,40 -2,4 -29,5 -59,2 -51,-4 -57,-2 -86,26 -24,24 -30,39 -30,71 0,35 7,49 41,86 55,60 98,73 172,51 67,-19 131,-78 167,-151 47,-95 38,-246 -21,-364 -75,-150 -232,-221 -420,-188 -140,24 -316,106 -386,179 -116,121 -178,339 -153,539 15,128 62,264 124,360 110,171 170,251 241,327 102,108 163,153 283,206 211,93 383,216 557,398 120,126 164,190 201,296 124,357 -52,763 -374,862 -93,29 -226,27 -313,-4 -126,-44 -231,-134 -305,-258 -94,-162 -96,-285 -3,-377 51,-51 86,-65 164,-65 78,0 113,14 164,64 34,35 43,67 14,55 -67,-29 -124,-9 -149,52 -19,45 -6,88 39,130 43,41 69,53 114,53 117,-1 236,-130 250,-272 6,-62 -17,-182 -47,-243 -34,-71 -95,-131 -168,-167 -63,-31 -72,-33 -177,-33 -89,0 -124,5 -180,23 -191,64 -309,154 -373,285 -54,112 -67,175 -67,327 1,217 37,320 196,556 106,158 272,334 349,371 25,12 95,45 155,73 198,93 339,195 511,372 107,110 127,137 168,219 135,276 90,593 -115,801 -169,173 -389,214 -599,111 -185,-91 -343,-341 -309,-492 34,-152 210,-229 345,-152 79,45 108,107 38,81 -62,-24 -134,31 -134,101 0,46 48,106 107,134 93,44 241,-50 288,-185 8,-23 15,-75 15,-115 0,-177 -95,-330 -239,-386 -43,-17 -77,-22 -146,-22 -113,0 -190,20 -322,84 -80,39 -113,62 -153,106 -196,214 -207,614 -26,893 209,322 332,451 502,523 122,52 173,80 288,157 114,77 316,263 393,362 112,147 164,369 129,553 z"
       id="path34"
       style="fill:#ffffff;fill-opacity:1" />
    <path
       d="m 3727.5077,-3456.4657 c 48,-249.9997 226,-455.9997 436,-503.9997 67,-16 189,-13 251,5 156,46 279,153 356.0001,310 43.9999,90 47.9999,105 47.9999,169.9997 0,61 -4,77 -30,120 -18.9999,30 -48.9999,60 -78.9999,79 -43.0001,26 -59.0001,30 -120,30 -60,0 -79.0001,-4 -118.0001,-28 -44,-25 -78,-60 -78,-79 0,-5 24,-5 53,-2 47,6 56,4 84,-20 54,-46 52,-108.9997 -5,-168.9997 -57,-60 -123,-73 -197,-37 -91,44 -161,146.9997 -172,251.9997 -6,66 18,185 52,255 79,160 272,229 489.0001,173 115.9999,-30 264.9999,-110 324.9999,-176 149,-163 193,-457.9997 107,-711.9997 -33,-97 -57,-141 -165,-297 -96,-140 -250,-310.0004 -319,-350.0004 -30,-18 -43.9999,-45 -22,-45 5.0001,0 42,11 82,24 161,54 269,70 468,70 128,-1 208,-6 260,-16 41,-9 78,-13 82,-9 5,4 -5,67 -22,141.0004 -65,297 -94,585 -94,919.9997 0,337 27,591 95,914 16,76 27,141 25,145 -3,4 -18,72 -35,151 -111,539 -120,1099 -25,1649.00001 13,80 33,180 44,223 19,72 19,83 6,136 -47,184.999995 -89,481 -107,762 -22,351 10,757.99989 91,1139.99989 l 28,135 -19,80.0001 c -28,117 -66,339 -86,504.9999 -25,205 -25,735 0,939.9998 20,164.0002 60,399 86,508.0005 17,72.9998 17,75 -6,174.9998 -110,489.9997 -132,1049.0002 -62,1557 19,135 74,425.0003 85,441 2,3.9998 -7,59.0003 -21,120.9998 -136,614.0002 -136,1262.0002 0,1876.0005 14,61.9995 23,117 20,120.9998 -11,18.9997 -178,36 -350,35.0002 -146,0 -201,-4.0005 -290,-22.0005 -306.9999,-63 -578,-195.9998 -795,-388.9995 -276,-248.0003 -364,-407.0003 -364,-658.0005 0,-193.9995 62,-352.9995 188,-480 198,-201.0001 484,-219.9999 703.0001,-45.9998 94.9999,75 198.9999,252.9998 209.9999,357 17,167.0003 -142,291.9998 -308,242.0003 -43,-12 -119,-72 -119,-93 0,-10.0005 12,-12 53,-8.0003 47,5.0003 56,2.0003 84,-21 57,-48 53.0001,-105 -11,-170.0002 -59,-61.9995 -110,-69.9998 -191,-31.9995 -88,39.9997 -157,138 -171,238.9995 -9,63 13,182.0002 47,254.0002 37,78 118,153 197,183 49,18.9998 71,21 167.0001,17.0003 91.9999,-3 124,-9 195,-36 114.9999,-43.0005 223.9999,-107.0003 263.9999,-156 150,-183 187,-460.0005 97,-722.0003 -57,-165.0001 -257,-447.9997 -407,-576.9997 -79.9999,-68.0003 -81,-69 -204,-121.0005 -192,-81.0001 -364,-201.0001 -539,-378.0001 -189,-190.9995 -249,-312 -258,-522 -6,-141 12,-229.9995 71,-349.9995 92,-186 236,-296.0002 424,-325.0005 235,-36.9997 481.0001,123 582,380.0003 70,177 -31,344.0002 -209.9999,345 -53.0001,0 -73.0001,-5.0003 -112.0001,-27 -54,-32.0003 -93,-77.0003 -79,-90.9998 5,-5.0002 17,-5.0002 29,1.9995 38,20.0003 72,13.0005 108.0001,-22.9995 48.9999,-49.0005 45.9999,-103.0005 -10.0001,-164.0002 -97,-105.9998 -266,-44.0003 -343,125.0002 -23,48.9998 -25,63.9998 -21,145.9995 8,143.0003 54,246 143,316.0005 147,117 364,105 614,-33 220,-122.0002 314,-451.0005 219,-771 -29,-98.0002 -67,-170.0002 -171,-320.0002 -168,-243.9998 -264,-332.0003 -446,-413.0003 -222,-99 -351,-189.9998 -541,-381 -139,-138.9998 -186,-207 -223,-321 -61,-183.9998 -47,-382.9997 40,-558.9997 46,-95.0001 170,-224.0001 255,-264.0001 215,-102.9999 431,-63.9999 604.0001,109 108,107 182.9999,273 166.9999,371.0001 -3,18 -20,57 -37,85 -75.9999,127.0002 -258,145.9999 -363,38 -18,-18 -30,-36 -28,-40 2,-4 29,-5 59,-2 51,4 57,2 86,-26 24,-24.0001 30,-39.0001 30,-71 0,-35 -6.9999,-49.0001 -41,-86 -55,-60 -98,-73 -172,-51 -67,18.9999 -131,78 -167,150.9999 -47,95.0001 -38,245.9998 21,364.0003 75,150 232,220.9995 420,187.9995 140.0001,-24 316,-105.9998 386,-178.9995 116,-121.0005 178,-339.0002 153,-539.0002 -15,-128.0001 -62,-264.0001 -124,-360.0001 -110,-171 -170,-251 -241,-327 -102,-108 -163,-153 -283,-205.9999 -211,-93 -383,-216 -557,-398.0001 -120,-126 -164,-189.9999 -201,-296 -124,-356.99989 52,-762.99989 374,-861.99989 93,-29 226,-27 313,4 126,44 231,134 305.0001,258 93.9999,162 95.9999,285 3,377 -51,50.9999 -86.0001,65 -164.0001,65 -78,0 -113,-14.0001 -164,-64 -34,-35 -43,-67 -14,-55 67,29 124,9 149.0001,-52 18.9999,-45 6,-88 -39.0001,-130 -43,-41 -69,-53 -114,-53 -117,1 -236,130 -250,272 -6,61.9999 17,181.99989 47,242.99989 34,71 95,131 168,167 63,31 72,33 177,33 89.0001,0 124,-5 180.0001,-23 190.9999,-64 308.9999,-154 372.9999,-284.9999 54,-111.99999 67,-174.99999 67,-326.99999 -1,-217 -37,-320 -196,-556.00001 -106,-157.999995 -271.9999,-333.99999 -349,-370.99999 -24.9999,-12 -95,-45 -155,-73 -198,-93 -339,-195 -511,-372 -107,-110 -127,-137 -168,-219 -135,-276.00001 -90,-593.00001 115,-801.00001 169,-173 389,-214 599,-111 185.0001,91 343,341 309,492 -34,152 -210,229 -345,152 -79,-45 -108,-107 -38,-81 62,24 134,-31 134,-101 0,-46 -48,-106 -107,-134 -93,-44 -241,50 -288,185 -8,23 -15,75 -15,115 0,177 95,330.00001 239,386.00001 43,17 77,22 146.0001,22 112.9999,0 190,-20 321.9999,-84 80,-39 113,-62 153,-106.00001 196,-214 207,-614 26,-893 -209,-322 -331.9999,-451 -502,-523 -122,-52 -173,-80 -288,-157 -114,-77 -316,-263 -393,-362 -112,-147 -164,-369 -129,-553 z"
       id="path34-6"
       style="stroke-width:0.999997;fill:#ffffff;fill-opacity:1" />
  </g>
</svg>
